<?xml version="1.0" standalone="no"?>
<!DOCTYPE svg PUBLIC "-//W3C//DTD SVG 20010904//EN"
 "http://www.w3.org/TR/2001/REC-SVG-20010904/DTD/svg10.dtd">
<svg version="1.0" xmlns="http://www.w3.org/2000/svg"
 width="667.000000pt" height="667.000000pt" viewBox="0 0 667.000000 667.000000"
 preserveAspectRatio="xMidYMid meet">

<g transform="translate(0.000000,667.000000) scale(0.100000,-0.100000)"
fill="#000000" stroke="none">
<path d="M1535 6219 c-362 -27 -695 -211 -911 -504 -101 -137 -170 -289 -217
-475 -21 -85 -21 -90 -25 -1840 -2 -1228 0 -1784 8 -1852 22 -194 96 -395 207
-560 193 -288 532 -495 883 -538 246 -30 482 10 706 120 145 70 253 150 360
263 184 194 301 443 334 707 9 77 15 900 6 900 -7 0 -522 -60 -563 -65 l-43
-6 0 -388 c0 -431 -2 -448 -67 -581 -51 -105 -178 -232 -283 -283 -104 -51
-176 -67 -295 -67 -119 0 -191 16 -295 67 -105 51 -232 178 -283 283 -69 142
-67 105 -67 1012 l0 818 950 0 951 0 -4 963 c-3 938 -4 964 -24 1047 -48 194
-117 341 -230 492 -254 337 -664 519 -1098 487z m238 -615 c184 -40 350 -166
435 -330 72 -141 72 -133 72 -821 l0 -613 -645 0 -645 0 0 613 c0 688 0 680
72 821 132 254 429 392 711 330z"/>
<path d="M4814 6219 c-269 -20 -524 -134 -724 -325 -170 -162 -272 -339 -338
-583 -26 -95 -26 -99 -30 -553 -3 -415 -2 -458 12 -458 25 0 548 60 574 65
l22 5 0 383 c0 419 2 436 61 557 45 91 151 196 248 244 231 117 506 73 685
-109 73 -74 119 -156 146 -261 18 -70 20 -111 20 -428 0 -380 -5 -428 -55
-547 -60 -142 -206 -318 -355 -429 -36 -26 -279 -171 -540 -321 -261 -149
-500 -291 -530 -314 -149 -115 -299 -308 -359 -465 -62 -160 -66 -201 -66
-675 1 -367 3 -444 18 -525 66 -356 265 -655 563 -845 348 -223 811 -256 1196
-86 86 38 216 120 290 183 l37 31 56 -52 c66 -60 169 -122 258 -156 69 -26
209 -55 263 -55 l34 0 -2 301 -3 302 -48 12 c-29 7 -61 25 -82 45 -71 68 -65
-102 -65 1972 0 1055 -4 1922 -10 1985 -16 195 -66 361 -155 513 -235 400
-658 622 -1121 589z m660 -4659 c-43 -195 -160 -349 -335 -440 -97 -50 -180
-70 -299 -70 -119 0 -202 20 -299 70 -177 92 -296 250 -336 447 -13 65 -15
143 -13 468 l3 390 34 69 c60 123 88 143 602 435 474 270 544 313 614 374 l40
35 3 -852 c2 -760 1 -859 -14 -926z"/>
</g>
</svg>
